<svg width="600" height="600" viewBox="0 0 600 600" fill="none" xmlns="http://www.w3.org/2000/svg">
<rect width="600" height="600" fill="#FFD000"/>
<path d="M125 317.536V332.566C125 339.194 130.373 344.566 137 344.566H255.464C258.137 344.566 259.475 347.797 257.586 349.687L234.464 372.817C229.78 377.503 229.78 385.099 234.464 389.785L246.185 401.51C250.872 406.198 258.472 406.198 263.159 401.51L331.11 333.535C335.794 328.849 335.794 321.253 331.11 316.567L263.159 248.592C258.472 243.904 250.872 243.904 246.185 248.592L235.612 259.169C230.928 263.855 230.928 271.451 235.612 276.137L259.881 300.415C261.77 302.305 260.432 305.536 257.759 305.536H137C130.373 305.536 125 310.908 125 317.536Z" fill="#333333"/>
<path d="M357.951 317.536V332.566C357.951 339.194 363.323 344.566 369.951 344.566H463C469.627 344.566 475 339.194 475 332.566V317.536C475 310.908 469.627 305.536 463 305.536H369.951C363.323 305.536 357.951 310.908 357.951 317.536Z" fill="#333333"/>
<path d="M190.028 273.393H137C130.373 273.393 125 268.02 125 261.393V84C125 70.7452 135.745 60 149 60H451C464.255 60 475 70.7451 475 84V261.393C475 268.02 469.627 273.393 463 273.393H319.316C316.133 273.393 313.08 272.128 310.829 269.877L263.159 222.189C258.472 217.501 250.872 217.501 246.185 222.189L198.515 269.877C196.264 272.128 193.212 273.393 190.028 273.393Z" fill="#333333"/>
<rect x="125" y="440" width="150" height="70" rx="10" fill="#333333"/>
<rect x="405" y="440" width="70" height="70" rx="10" fill="#333333"/>
<rect x="275" y="467" width="130" height="16" fill="#333333"/>
</svg>
